<svg xmlns="http://www.w3.org/2000/svg" viewBox="0 0 50 50"><defs><style>.cls-1{fill:#000070;}.cls-2{fill:#fff;}.cls-3{fill:none;stroke:#fff;stroke-miterlimit:10;}</style></defs><title>butn_pageTop</title><g id="レイヤー_2" data-name="レイヤー 2"><g id="Wire_frame" data-name="Wire frame"><circle class="cls-1" cx="25" cy="25" r="25"/><path class="cls-2" d="M21.09,32.26v.94h-2V39H17.92V33.2h-2v-.94Z"/><path class="cls-2" d="M24.67,32.15a2.57,2.57,0,0,1,2.18,1,3.89,3.89,0,0,1,.7,2.44,3.72,3.72,0,0,1-.9,2.69,2.63,2.63,0,0,1-2,.8,2.55,2.55,0,0,1-2.18-1,3.89,3.89,0,0,1-.7-2.44,3.76,3.76,0,0,1,.91-2.69A2.6,2.6,0,0,1,24.67,32.15Zm0,.9a1.36,1.36,0,0,0-1.24.73,3.55,3.55,0,0,0-.4,1.85,3.31,3.31,0,0,0,.51,2,1.43,1.43,0,0,0,2.38-.17,3.67,3.67,0,0,0,.39-1.84,3.3,3.3,0,0,0-.51-2A1.33,1.33,0,0,0,24.67,33.05Z"/><path class="cls-2" d="M28.78,32.26h2.37q2.4,0,2.4,1.92a1.76,1.76,0,0,1-.72,1.52,3,3,0,0,1-1.75.45H30V39H28.78Zm1.17.87v2.15h1.1c.88,0,1.32-.36,1.32-1.09s-.43-1.06-1.28-1.06Z"/><path class="cls-3" d="M17.75,25.76,25,13.2l7.24,12.56"/></g></g></svg>