<svg xmlns="http://www.w3.org/2000/svg" viewBox="0 0 123.56 49.42"><defs><style>.cls-1{fill:#b2985e;}.cls-2{fill:#000070;}</style></defs><title>btn_ul_spTuijuNav02</title><g id="レイヤー_2" data-name="レイヤー 2"><g id="navi"><rect class="cls-1" width="123.56" height="49.42"/><path class="cls-2" d="M27.1,16.08a21,21,0,0,0,2.48.11h3.81c1.11,0,2,0,2.58,0,.11,0,.17.05.17.14v.45c0,.1-.06.15-.17.15-.42,0-.95,0-1.58,0H28.74L27.37,17a.16.16,0,0,1-.17-.15A2.59,2.59,0,0,1,27.1,16.08Z"/><path class="cls-2" d="M39.44,14.24a2.87,2.87,0,0,1,1-1.77A2.44,2.44,0,0,1,42,12a2.32,2.32,0,0,1,1.74.66,2.09,2.09,0,0,1,.58,1.54,2.61,2.61,0,0,1-.41,1.42,9.64,9.64,0,0,1-1.4,1.5,9.14,9.14,0,0,0-2.38,3h4.2v.66h-5v-.59A10,10,0,0,1,42,16.66a7.56,7.56,0,0,0,1.3-1.46,2.06,2.06,0,0,0,.26-1A1.49,1.49,0,0,0,43,13,1.59,1.59,0,0,0,42,12.64c-1,0-1.57.6-1.78,1.8Z"/><path class="cls-2" d="M51,12v6h1.27v.62H51v2.06h-.69V18.66H46.78v-.59L50,12Zm-.69,6V14.45c0-.24,0-.85,0-1.82h-.11c-.25.59-.51,1.15-.79,1.68L47.52,18Z"/><path class="cls-2" d="M55.67,19.6v1c0,.05,0,.07-.09.07H55.2c-.06,0-.09,0-.09-.07l0-3.69V14.64l0-2.79s0-.08.09-.08l.93,0h.77l.94,0a.07.07,0,0,1,.08.08l0,2.43V16.7l0,3.53a.07.07,0,0,1-.08.08h-.38a.07.07,0,0,1-.08-.08V19.6Zm0-4.23h1.71V12.29H55.67Zm0,.48v3.27h1.71V15.85Zm5.58-.93V13.19h-.8l-1.55,0c-.07,0-.1,0-.1-.08v-.36c0-.06,0-.09.1-.09l1.55,0h.8v-.06a11,11,0,0,0-.08-1.55l.62.06q.12,0,.12.09a1.33,1.33,0,0,1,0,.21,5.06,5.06,0,0,0-.07,1.17v.08H63l1.54,0c.06,0,.08,0,.08.09v.36s0,.08-.08.08l-1.54,0H61.79v1.73h1.68l1.66,0a.08.08,0,0,1,.09.09v.36c0,.05,0,.08-.09.08l-1.66,0H60.05l-1.65,0c-.06,0-.09,0-.09-.08V15a.08.08,0,0,1,.09-.09l1.65,0Zm1.69,2.57H60.11l-1.65,0a.07.07,0,0,1-.08-.08v-.38s0-.07.08-.07h4.48v-.08a6.32,6.32,0,0,0-.09-1.28,3,3,0,0,1,.61.07c.1,0,.15,0,.15.08a.4.4,0,0,1-.08.2,4.85,4.85,0,0,0-.05.91V17H65c.05,0,.08,0,.08.07v.38a.07.07,0,0,1-.08.08l-1.51,0v3.34a.85.85,0,0,1-.31.74,2.32,2.32,0,0,1-1.13.18h-.2a.48.48,0,0,1-.18,0,.53.53,0,0,1-.08-.17,1,1,0,0,0-.2-.41,7.39,7.39,0,0,0,.84,0h.27c.29,0,.44-.16.44-.47Zm-3,.81a6,6,0,0,1,1.22,1.47.07.07,0,0,1,0,.06s0,.06-.07.1l-.21.14-.13.08s0,0-.06,0a6.18,6.18,0,0,0-1.17-1.5s-.05,0-.05-.06,0-.06.12-.11l.16-.12.11,0S59.86,18.27,59.89,18.3Z"/><path class="cls-2" d="M69.48,11.56h1.33l1.2,0c.06,0,.08,0,.08.08l0,1.09v1.23l0,1.1c0,.05,0,.08-.08.08l-1.2,0H68.63v4.1l0,2.44a.07.07,0,0,1-.08.08h-.43a.07.07,0,0,1-.08-.08l0-2.44V14.09l0-2.47a.07.07,0,0,1,.08-.08Zm-.85,1.52h2.91V12H68.63Zm0,.44v1.13h2.91V13.52ZM71.28,20v.69a.07.07,0,0,1-.08.08h-.37a.07.07,0,0,1-.08-.08l0-2.11v-1l0-1.36a.07.07,0,0,1,.08-.08l1.24,0h1.32l1.24,0a.07.07,0,0,1,.07.08l0,1.19V18.5l0,2.05c0,.06,0,.09-.07.09h-.38s-.08,0-.08-.09V20Zm0-2.17h2.89v-1.2H71.28Zm0,.46v1.27h2.89V18.29ZM77,15.1H74.7l-1.29,0a.07.07,0,0,1-.08-.08V11.62a.07.07,0,0,1,.08-.08l1.29,0h1.45l1.29,0a.07.07,0,0,1,.08.08l0,1.72v5.58l0,1.57a1.7,1.7,0,0,1-.07.59.72.72,0,0,1-.23.27,2.09,2.09,0,0,1-1.17.21H75.8a.29.29,0,0,1-.17,0l-.06-.16a1.18,1.18,0,0,0-.19-.41,6.13,6.13,0,0,0,.89.06.81.81,0,0,0,.58-.14.78.78,0,0,0,.11-.49Zm0-2V12H73.87v1.06Zm0,1.57V13.52H73.87v1.13Z"/><path class="cls-2" d="M81.25,16.08a20.77,20.77,0,0,0,2.47.11h3.82c1.11,0,2,0,2.58,0,.11,0,.17.05.17.14v.45c0,.1-.06.15-.17.15q-.63,0-1.59,0H82.89L81.51,17a.18.18,0,0,1-.17-.15A3,3,0,0,1,81.25,16.08Z"/><path class="cls-2" d="M39.47,24.42l-2.4,12H34.51l-1-5.58c-.11-.62-.33-2.12-.66-4.49h-.22c-.29,2.12-.51,3.6-.66,4.43L31,36.4H28.39l-2.33-12h2.12L29,29.89c.24,1.61.44,3.1.6,4.45h.22q.08-.51.21-1.5c.17-1.31.31-2.28.43-2.91l1-5.51h2.67l1,5.69c.25,1.44.44,2.84.59,4.23H36c0-.35.15-1.13.31-2.35.11-.77.21-1.43.29-2l.92-5.6Z"/><path class="cls-2" d="M49.17,24.42v1.65H43.34v3.17h4.4v1.65h-4.4v3.86h5.95V36.4h-8v-12Z"/><path class="cls-2" d="M51.26,24.42h4.28a4.92,4.92,0,0,1,3.3.89,2.67,2.67,0,0,1,.8,2.09,2.45,2.45,0,0,1-.74,1.82,3,3,0,0,1-1.65.79v.1a3.46,3.46,0,0,1,2.14,1.08A2.72,2.72,0,0,1,60,33a3,3,0,0,1-1.25,2.61,5.06,5.06,0,0,1-3,.79h-4.5Zm2,1.56v3.37h1.83A2.88,2.88,0,0,0,57,28.81a1.51,1.51,0,0,0,.53-1.21A1.38,1.38,0,0,0,57,26.34,3.08,3.08,0,0,0,55.31,26Zm0,4.93v3.93h2.23a2.61,2.61,0,0,0,1.86-.59,1.88,1.88,0,0,0,.51-1.4,1.67,1.67,0,0,0-.78-1.49,3.39,3.39,0,0,0-1.86-.45Z"/><path class="cls-2" d="M66.63,26.21c.74.39,1.39.78,2,1.14a15,15,0,0,0,2.49-1.78H65.56l-2.14,0c-.1,0-.15-.05-.15-.16V24.28c0-.11,0-.17.15-.17l2.14,0H72a1.28,1.28,0,0,0,.4,0,.63.63,0,0,1,.21-.08c.16,0,.4.17.73.5s.56.6.56.75-.1.21-.28.29a2.06,2.06,0,0,0-.57.41,20.84,20.84,0,0,1-3.2,2.31l.54.45c.06.05.08.08.08.11s0,.08-.12.15l-.25.22h3.49a.67.67,0,0,0,.35-.08.52.52,0,0,1,.24-.08,1.59,1.59,0,0,1,.77.45c.34.27.51.49.51.65s-.07.2-.22.3a2.46,2.46,0,0,0-.57.57,14.79,14.79,0,0,1-2.11,2.19c-.18.16-.29.24-.36.24a1.19,1.19,0,0,1-.38-.25,4.33,4.33,0,0,0-1.06-.68,9.79,9.79,0,0,0,2.07-1.83H69.49v2.57l0,2.4a1.66,1.66,0,0,1-.49,1.4,2.09,2.09,0,0,1-1,.32,12.39,12.39,0,0,1-1.62.08.77.77,0,0,1-.45-.08,1.24,1.24,0,0,1-.15-.41,5,5,0,0,0-.53-1.24c.79.06,1.42.09,1.9.09a.46.46,0,0,0,.59-.55V30.69H64l-2,0c-.08,0-.13,0-.14,0a.19.19,0,0,1,0-.13V29.35c0-.09,0-.13,0-.15l.14,0,2,0h4.44a22,22,0,0,0-2.91-1.95c-.07,0-.11-.08-.11-.12s0-.1.11-.16l.77-.71c.07-.07.12-.1.17-.1A.3.3,0,0,1,66.63,26.21Z"/><path class="cls-2" d="M82.39,28.48a13.71,13.71,0,0,1,1.14,2.8.65.65,0,0,1,0,.11c0,.09-.07.15-.2.19l-.82.27-.13,0c-.07,0-.11,0-.13-.13l-.19-.7c-.24,0-.59.07-1.06.12V35.4l0,2a.24.24,0,0,1,0,.15.22.22,0,0,1-.14,0H79.7a.24.24,0,0,1-.15,0,.4.4,0,0,1,0-.15l0-2V31.28l-1.46.09a1.37,1.37,0,0,0-.56.12.49.49,0,0,1-.24.08c-.08,0-.15-.09-.18-.26-.08-.38-.15-.81-.21-1.3.37,0,.69,0,1,0h.33l.86-1.17A22.37,22.37,0,0,0,77,26.61a.26.26,0,0,1-.09-.14.55.55,0,0,1,.1-.19l.57-.77c.06-.09.11-.13.16-.13a.36.36,0,0,1,.14.09l.38.4a14.86,14.86,0,0,0,.83-1.56,4.4,4.4,0,0,0,.36-.95,11.64,11.64,0,0,1,1.35.56c.13.08.2.16.2.25s0,.13-.14.21a1,1,0,0,0-.29.36c-.5.85-1,1.56-1.36,2.13l.67.78c.31-.47.65-1,1-1.71a7.93,7.93,0,0,0,.48-1.07,13.48,13.48,0,0,1,1.3.66c.12.07.19.15.19.23a.27.27,0,0,1-.18.24,2,2,0,0,0-.5.63c-.75,1.18-1.53,2.29-2.36,3.35l1.84-.11c-.16-.39-.3-.72-.43-1a.31.31,0,0,1,0-.12c0-.05.06-.09.19-.14l.71-.25.15,0C82.3,28.36,82.34,28.4,82.39,28.48ZM76.92,36a11.83,11.83,0,0,0,.68-3c0-.24,0-.44,0-.61s0-.16,0-.26l1.19.17c.18,0,.27.09.27.19a1,1,0,0,1-.1.23,2.38,2.38,0,0,0-.09.49,17.16,17.16,0,0,1-.59,3q-.09.33-.21.33a.81.81,0,0,1-.36-.18A2.72,2.72,0,0,0,76.92,36Zm5.57-3.87.14,0c.05,0,.1,0,.14.16a23.06,23.06,0,0,1,.79,2.92.54.54,0,0,1,0,.11c0,.07-.06.13-.19.17l-.82.28a.45.45,0,0,1-.16,0c-.06,0-.1-.05-.12-.16a19.74,19.74,0,0,0-.7-3,.45.45,0,0,1,0-.13c0-.05.06-.09.17-.13Zm0-3.74a9.69,9.69,0,0,0,2.21-3.74A7.79,7.79,0,0,0,85,23.34q.78.15,1.5.33c.22.06.33.14.33.25a.43.43,0,0,1-.15.3,1.9,1.9,0,0,0-.44.79c-.16.46-.28.77-.36.94h2.92l1.56,0a.17.17,0,0,1,.19.18c0,.29,0,.72,0,1.28a55.59,55.59,0,0,1-.45,7.74,3.09,3.09,0,0,1-.8,1.83,2.29,2.29,0,0,1-1.54.52h-.56a5.63,5.63,0,0,1-.61,0,.74.74,0,0,1-.43-.1,1.32,1.32,0,0,1-.14-.42,3.91,3.91,0,0,0-.43-1.17,15.24,15.24,0,0,0,1.73.14h.23c.49,0,.82-.45,1-1.34a46.35,46.35,0,0,0,.38-7.18H85.19A9.61,9.61,0,0,1,84,29.11c-.17.19-.28.28-.34.28s-.17-.09-.32-.28A2.91,2.91,0,0,0,82.48,28.39Zm3,1.13a14.48,14.48,0,0,1,1.76,2.95.35.35,0,0,1,0,.12s0,.11-.17.17l-1,.59a.35.35,0,0,1-.16.06s-.1,0-.14-.16a15.93,15.93,0,0,0-1.62-3,.31.31,0,0,1-.07-.15s0-.1.16-.16l.87-.49a.35.35,0,0,1,.16-.06S85.42,29.45,85.48,29.52Z"/></g></g></svg>