<svg xmlns="http://www.w3.org/2000/svg" viewBox="0 0 123.56 49.42"><defs><style>.cls-1{fill:#ddcd9c;}.cls-2{fill:#000070;}</style></defs><title>btn_ul_spTuijuNav03</title><g id="レイヤー_2" data-name="レイヤー 2"><g id="navi"><rect class="cls-1" width="123.56" height="49.42"/><path class="cls-2" d="M11.43,14c.18-.61.33-1.17.45-1.69a4,4,0,0,0,.1-.9v-.28a3.81,3.81,0,0,1,.81.3.16.16,0,0,1,.09.14.16.16,0,0,1-.06.12.84.84,0,0,0-.22.39c-.18.66-.36,1.28-.54,1.85a8.69,8.69,0,0,1,1.22-.11,1.39,1.39,0,0,1,1.19.46,2.3,2.3,0,0,1,.33,1.38,9.13,9.13,0,0,1-.65,3.84,1.37,1.37,0,0,1-1.25.92,3.37,3.37,0,0,1-1.24-.22.14.14,0,0,1-.12-.15,1.6,1.6,0,0,0-.11-.58,3.41,3.41,0,0,0,1.36.33.9.9,0,0,0,.81-.61,8.66,8.66,0,0,0,.58-3.52A1.89,1.89,0,0,0,14,14.55a.78.78,0,0,0-.68-.26,9.64,9.64,0,0,0-1.37.13,35,35,0,0,1-2.45,5.71.1.1,0,0,1-.1.07l0,0L9.1,20l-.18-.13a.05.05,0,0,1,0-.06.2.2,0,0,1,0-.08,29.57,29.57,0,0,0,2.35-5.25c-.74.1-1.26.18-1.57.24a2.77,2.77,0,0,0-.67.18.37.37,0,0,1-.15.05.14.14,0,0,1-.14-.09,3.39,3.39,0,0,1-.23-.68h.28c.28,0,.59,0,.93-.05S10.66,14.06,11.43,14Zm4.3-.47a2.41,2.41,0,0,1,.43-.28h.05a.21.21,0,0,1,.11.05,6.43,6.43,0,0,1,1.9,2.9.84.84,0,0,1,0,.1.14.14,0,0,1,0,.09,1.6,1.6,0,0,1-.37.23l-.09,0c-.05,0-.09,0-.1-.1A6.46,6.46,0,0,0,15.73,13.48Z"/><path class="cls-2" d="M23.89,13.33c-.17-.4-.36-.87-.56-1.42a3.54,3.54,0,0,0-.48-.95,3.51,3.51,0,0,1,.72-.07h.09c.15,0,.22.07.22.16v.17s0,.08,0,.11a4.23,4.23,0,0,0,.2.87c.17.46.31.8.41,1a13,13,0,0,0,2.66-.76h.06c.05,0,.08,0,.09.05a2.16,2.16,0,0,1,.12.4v0a.08.08,0,0,1-.06.09,18.17,18.17,0,0,1-2.63.75,11.68,11.68,0,0,0,2,3.06,1.64,1.64,0,0,0,.33.26.22.22,0,0,1,.07.1.16.16,0,0,1,0,.11,2.45,2.45,0,0,1-.25.36c-.05.06-.09.1-.13.1a.22.22,0,0,1-.12-.06,3.75,3.75,0,0,0-.41-.24,6.11,6.11,0,0,0-2.81-.64,3,3,0,0,0-1.78.44,1.16,1.16,0,0,0-.52,1c0,.58.39,1,1.16,1.32a6.1,6.1,0,0,0,2.15.34,8.57,8.57,0,0,0,1.67-.15,2.2,2.2,0,0,1-.13.6.15.15,0,0,1-.12.1c-.45,0-.91.07-1.4.07a5.93,5.93,0,0,1-2.86-.6,1.84,1.84,0,0,1-1.08-1.66,1.7,1.7,0,0,1,1-1.58,4.16,4.16,0,0,1,1.94-.41,6.25,6.25,0,0,1,2.72.61,11.09,11.09,0,0,1-2-3,20.62,20.62,0,0,1-2.65.33l-1,0c-.06,0-.1,0-.13-.12a4.57,4.57,0,0,1-.09-.51l.64,0h.45A16.62,16.62,0,0,0,23.89,13.33Z"/><path class="cls-2" d="M34.64,18.12c0-.53-.07-1.24-.08-2.1-.45,0-.86,0-1.24,0A15.17,15.17,0,0,1,31.76,16a.11.11,0,0,1-.12-.11,3.83,3.83,0,0,1,0-.47,14.75,14.75,0,0,0,1.87.1c.35,0,.71,0,1.06,0,0-.39,0-1,0-1.94l-1.36,0c-.66,0-1.29,0-1.9-.08a.11.11,0,0,1-.08-.1c0-.29,0-.45,0-.49a18.46,18.46,0,0,0,2.15.12c.39,0,.8,0,1.22,0,0-.55,0-1,0-1.28a2.33,2.33,0,0,0-.12-.77,4.4,4.4,0,0,1,.8.15c.09,0,.13.08.13.15a.16.16,0,0,1,0,.09,1.05,1.05,0,0,0-.15.54c0,.43,0,.79,0,1.1a20.56,20.56,0,0,0,3-.39h0s.05,0,.06.07a2,2,0,0,1,0,.43.08.08,0,0,1-.07.08,27,27,0,0,1-3.06.36c0,.89,0,1.54,0,1.94a16.88,16.88,0,0,0,2.72-.37h0a.07.07,0,0,1,.07,0v.44a.1.1,0,0,1-.09.1,18.72,18.72,0,0,1-2.73.33c0,.7,0,1.47.1,2.3a10.3,10.3,0,0,1,3.22,1.56s.06.07.06.1a.25.25,0,0,1,0,.07,3,3,0,0,1-.22.37.1.1,0,0,1-.08.05.1.1,0,0,1-.06,0,9.22,9.22,0,0,0-2.88-1.54s0,.08,0,.1a1.61,1.61,0,0,1-.58,1.4,2.54,2.54,0,0,1-1.49.35,2.62,2.62,0,0,1-1.6-.4,1.06,1.06,0,0,1-.43-.9,1.17,1.17,0,0,1,.63-1A3,3,0,0,1,33.33,18,7.58,7.58,0,0,1,34.64,18.12Zm0,.58a6.52,6.52,0,0,0-1.34-.16,2.46,2.46,0,0,0-1.24.26.67.67,0,0,0-.35.57c0,.54.47.81,1.4.81a1.73,1.73,0,0,0,1.28-.37,1.28,1.28,0,0,0,.26-.88A1.69,1.69,0,0,0,34.64,18.7Z"/><path class="cls-2" d="M45.34,13.33V11.66a7,7,0,0,0-.08-1.29l.62.06c.09,0,.13,0,.13.09a.46.46,0,0,1-.07.23,3.13,3.13,0,0,0-.06.86v0H48l1.45,0a.07.07,0,0,1,.08.08V12c0,.06,0,.08-.08.08L48,12.1h-2.1v1.23H49l1.61,0c.06,0,.08,0,.08.08v.37c0,.05,0,.08-.08.08l-1.61,0H42.18l-1.6,0c-.06,0-.09,0-.09-.08v-.37c0-.05,0-.08.09-.08l1.6,0h.46V12.4a7.08,7.08,0,0,0-.08-1.29c.25,0,.45,0,.62.05s.13.05.13.1a.46.46,0,0,1-.07.23,3.08,3.08,0,0,0-.06.86v1Zm4,1.23a4.46,4.46,0,0,1,.62.07c.08,0,.12,0,.12.08a.55.55,0,0,1-.08.23,4.64,4.64,0,0,0,0,.9v3.39l0,1.88c0,.05,0,.07-.08.07h-.4c-.06,0-.08,0-.08-.07v-.65H41.69v.6c0,.06,0,.09-.08.09h-.4c-.05,0-.08,0-.08-.09l0-1.85V15.79a6,6,0,0,0-.09-1.27c.21,0,.41,0,.62.06s.14.05.14.1a1,1,0,0,1-.08.22,3.6,3.6,0,0,0-.06.89V20h7.76V15.84A8.8,8.8,0,0,0,49.38,14.56ZM45.73,17c0,.48,0,1.05,0,1.71s0,.78,0,.8a.08.08,0,0,1-.09.09h-.38c-.06,0-.08,0-.08-.09l0-1q0-.87,0-1.53a7.58,7.58,0,0,1-2.66,2.19l-.15.06s-.08,0-.14-.13a.55.55,0,0,0-.24-.22A8.07,8.07,0,0,0,45,16.82h-.91l-1.61,0a.07.07,0,0,1-.08-.08v-.31a.07.07,0,0,1,.08-.08l1.61,0h1.2v-1a7.49,7.49,0,0,0-.07-1.19,4.16,4.16,0,0,1,.54.08c.1,0,.15,0,.15.08a.44.44,0,0,1,0,.14l0,.11a3.45,3.45,0,0,0-.06.78v1h1.37l1.61,0a.07.07,0,0,1,.08.08v.31a.07.07,0,0,1-.08.08l-1.61,0H46A7.7,7.7,0,0,0,47.51,18a9.69,9.69,0,0,0,1.6.73,1.17,1.17,0,0,0-.26.28c-.05.09-.1.14-.14.14l-.14-.05A8.16,8.16,0,0,1,45.73,17ZM43.54,14.6a5.41,5.41,0,0,1,.74,1.05.15.15,0,0,1,0,.06s0,.06-.11.1l-.14.08-.14.06s0,0-.06-.06a4.22,4.22,0,0,0-.72-1.06s0,0,0-.06,0-.06.11-.1l.14-.07.11,0S43.51,14.57,43.54,14.6Zm3.15,1.26a7.19,7.19,0,0,0,.73-1,1.16,1.16,0,0,0,.15-.4,2.57,2.57,0,0,1,.45.2c.06,0,.09.08.09.11s0,.07-.09.12a.65.65,0,0,0-.17.19,9.37,9.37,0,0,1-.66.83c-.07.07-.11.11-.15.11L46.9,16A.51.51,0,0,0,46.69,15.86Z"/><path class="cls-2" d="M53.85,14.64c0,1.43,0,3,0,4.63,0,.35,0,.81,0,1.4,0,.26,0,.41,0,.44s0,.09-.08.09h-.46s-.08,0-.08-.09q.09-1.68.1-6.44a12.79,12.79,0,0,1-1.88,3.91c-.05.07-.08.11-.11.11s-.07,0-.11-.12a1,1,0,0,0-.29-.31,11.79,11.79,0,0,0,2.15-4h-.44l-1.37,0s-.07,0-.07-.09v-.34c0-.06,0-.09.07-.09l1.37,0h.63V11.94c-.46.12-.92.23-1.38.31l-.13,0c-.05,0-.1-.06-.16-.17a.93.93,0,0,0-.26-.27,10.39,10.39,0,0,0,3.1-.89,2,2,0,0,0,.44-.3,4.18,4.18,0,0,1,.44.31.28.28,0,0,1,.09.17c0,.06-.06.09-.17.1a1.7,1.7,0,0,0-.42.14,8,8,0,0,1-1,.4v2.05h.26l1.37,0c.06,0,.08,0,.08.09v.34c0,.06,0,.09-.08.09l-1.37,0H54a8.43,8.43,0,0,0,1.61,2.28,1.24,1.24,0,0,0-.25.35c0,.09-.07.13-.1.13s-.06,0-.1-.1A9.91,9.91,0,0,1,53.85,14.64Zm6.27,2.55c.45-.09.84-.18,1.15-.26l.25-.06.08,0h0s.06,0,.06.09l.08.39v0s0,.05-.08.06l-.12,0c-.37.06-.85.16-1.45.28V19l0,2.07c0,.05,0,.08-.09.08h-.43a.07.07,0,0,1-.08-.08l0-2.06V17.84l-2.51.49-1.23.25-.26.06-.08,0h0s0,0-.05-.08l-.09-.38v0s0-.05.07-.06l1.6-.27,2.59-.53V12.16a10,10,0,0,0-.08-1.58l.61,0c.09,0,.14.06.14.11a1.13,1.13,0,0,1-.05.21,6.48,6.48,0,0,0-.07,1.2ZM56.3,14.61s0,0,0,0,0-.07.08-.13l.15-.14s.07-.07.09-.07a.11.11,0,0,1,.07,0,8.9,8.9,0,0,1,1.7,1.41.12.12,0,0,1,0,.08s0,0-.08.1l-.15.17c-.07.08-.11.12-.13.12a.12.12,0,0,1-.06-.05A8.25,8.25,0,0,0,56.3,14.61ZM56.62,12s0,0,0-.05,0-.06.09-.13l.14-.16a.19.19,0,0,1,.1-.05l.06,0A8.24,8.24,0,0,1,58.64,13l0,.06s0,.06-.06.1l-.17.2c-.07.06-.11.1-.13.1l-.06-.05A7.65,7.65,0,0,0,56.62,12Z"/><path class="cls-2" d="M66.64,12.94l2.93-.06a1.11,1.11,0,0,0,.55-.11.18.18,0,0,1,.1,0,.49.49,0,0,1,.19.05,3,3,0,0,1,.36.32.3.3,0,0,1,.09.19.17.17,0,0,1,0,.12,1,1,0,0,0-.28.37,16.43,16.43,0,0,1-2.32,3.76,14.16,14.16,0,0,1-3.76,3.13.11.11,0,0,1-.08,0,.16.16,0,0,1-.1,0,1.13,1.13,0,0,0-.56-.3,14.39,14.39,0,0,0,2.34-1.55,13.14,13.14,0,0,0,1.62-1.63,14.86,14.86,0,0,0,2.27-3.75l-3.63.09a15.07,15.07,0,0,1-2.41,2.6.19.19,0,0,1-.14.07.3.3,0,0,1-.11,0,1.3,1.3,0,0,0-.53-.22,12.64,12.64,0,0,0,3.05-3.42,4.12,4.12,0,0,0,.62-1.47,2.18,2.18,0,0,1,.75.37.13.13,0,0,1,.08.12.16.16,0,0,1-.08.14,1.49,1.49,0,0,0-.38.44C67,12.46,66.78,12.73,66.64,12.94Z"/><path class="cls-2" d="M75.39,11.44a3.44,3.44,0,0,1,.85.17.14.14,0,0,1,.12.14.23.23,0,0,1,0,.11,3,3,0,0,0-.13,1.2v2q0,.8,0,1.62c0,.11,0,.17-.14.17h-.45c-.09,0-.13,0-.13-.13v0q0-1.14,0-1.65V13.06A6.39,6.39,0,0,0,75.39,11.44ZM76,20.26a5.48,5.48,0,0,0,2.71-1.57,5,5,0,0,0,1-3.3V13.12a8.55,8.55,0,0,0-.15-1.89,4.16,4.16,0,0,1,.88.17.16.16,0,0,1,.11.16.19.19,0,0,1,0,.12,4.53,4.53,0,0,0-.13,1.43v2.18A5.55,5.55,0,0,1,79.31,19a6.19,6.19,0,0,1-2.58,1.72l-.12,0a.17.17,0,0,1-.14-.09A1.58,1.58,0,0,0,76,20.26Z"/><path class="cls-2" d="M84.23,18.05c.65,0,1.44.06,2.38.06h4c1,0,1.89,0,2.62,0,.12,0,.18,0,.18.14v.4q0,.15-.18.15c-.56,0-1.42,0-2.6,0h-4c-.69,0-1.41,0-2.16.07h0c-.09,0-.14-.05-.15-.16S84.25,18.37,84.23,18.05Zm1.42-5c.73,0,1.39.07,2,.07h1.92c.77,0,1.47,0,2.11,0,.1,0,.14,0,.14.12v.44c0,.09,0,.13-.14.13l-2.1,0H87.64c-.65,0-1.26,0-1.8,0h0c-.07,0-.11,0-.11-.16A3.52,3.52,0,0,1,85.65,13Z"/><path class="cls-2" d="M96.15,14.77l.45-.27h.07a.16.16,0,0,1,.11.07,8.24,8.24,0,0,1,1,1.63.18.18,0,0,1,0,.09s0,0-.07.08a1.71,1.71,0,0,1-.4.21h-.05s-.07,0-.1-.09A6.67,6.67,0,0,0,96.15,14.77Zm6-.62a2.88,2.88,0,0,1,.78.31.16.16,0,0,1,.08.13.14.14,0,0,1-.06.12,1.48,1.48,0,0,0-.34.54,12.83,12.83,0,0,1-1.76,3.13,10.57,10.57,0,0,1-2.46,2.26.28.28,0,0,1-.12.05.13.13,0,0,1-.08,0,.94.94,0,0,0-.51-.24,10,10,0,0,0,1.53-1.15,10.78,10.78,0,0,0,1.13-1.22A9.78,9.78,0,0,0,102,15,3.22,3.22,0,0,0,102.2,14.15Zm-3.73,0,.46-.25.06,0a.15.15,0,0,1,.11.07,7.68,7.68,0,0,1,.87,1.65.11.11,0,0,1,0,0,.09.09,0,0,1-.07.09,2.65,2.65,0,0,1-.41.21h0s0,0-.08-.08A7.31,7.31,0,0,0,98.47,14.19Z"/><path class="cls-2" d="M109.84,12.94l2.93-.06a1.11,1.11,0,0,0,.55-.11.18.18,0,0,1,.1,0,.49.49,0,0,1,.19.05,3,3,0,0,1,.36.32.3.3,0,0,1,.09.19.17.17,0,0,1,0,.12,1,1,0,0,0-.28.37,16.43,16.43,0,0,1-2.32,3.76,14.16,14.16,0,0,1-3.76,3.13.11.11,0,0,1-.08,0,.16.16,0,0,1-.1,0,1.13,1.13,0,0,0-.56-.3,14.39,14.39,0,0,0,2.34-1.55,13.14,13.14,0,0,0,1.62-1.63,14.86,14.86,0,0,0,2.27-3.75l-3.63.09a15.07,15.07,0,0,1-2.41,2.6.19.19,0,0,1-.14.07.3.3,0,0,1-.11,0,1.3,1.3,0,0,0-.53-.22,12.64,12.64,0,0,0,3.05-3.42,4.12,4.12,0,0,0,.62-1.47,2.18,2.18,0,0,1,.75.37.13.13,0,0,1,.08.12.16.16,0,0,1-.08.14,1.49,1.49,0,0,0-.38.44C110.16,12.46,110,12.73,109.84,12.94Z"/><path class="cls-2" d="M9.19,34.66c-.09.16-.17.24-.23.24s-.12-.1-.18-.28a4.77,4.77,0,0,0-.53-1.17,13.25,13.25,0,0,0,2.44-4.86h-.36l-1.55,0c-.08,0-.12,0-.14,0a.37.37,0,0,1,0-.14v-1.1c0-.1.05-.15.16-.15l1.55,0h.45v-1a13.91,13.91,0,0,0-.12-2.1,14.16,14.16,0,0,1,1.57.11c.15,0,.22.06.22.14a.74.74,0,0,1-.09.32,5.28,5.28,0,0,0-.11,1.52v1l1.48,0q.18,0,.18.15v1.1a.24.24,0,0,1,0,.16.33.33,0,0,1-.14,0l-1.4,0a8.2,8.2,0,0,0,1.8,2.93,5.22,5.22,0,0,0-.52,1c-.06.18-.12.27-.17.27s-.11-.08-.22-.24a9.61,9.61,0,0,1-1-1.93c0,1.73,0,3.53.07,5.39,0,.4,0,.92,0,1.56v.49c0,.08,0,.13,0,.14s-.06,0-.14,0H10.89c-.08,0-.13,0-.14,0a.19.19,0,0,1,0-.13s0-.41,0-1.1c0-2.09.06-4,.08-5.77A13.86,13.86,0,0,1,9.19,34.66Zm9.17.49a7.86,7.86,0,0,0,0,.79v.2c0,.1,0,.16,0,.19s0,.25-.1.29a1,1,0,0,1-.34.15q-1.45.52-3.39,1a5.75,5.75,0,0,0-.68.22.65.65,0,0,1-.29.14c-.09,0-.15-.07-.2-.21A12.6,12.6,0,0,1,13,36.48a7.41,7.41,0,0,0,1.31-.17l.19,0V27.59l0-2.7q0-.13,0-.15a.24.24,0,0,1,.15,0l2,0h2.79l1.84,0a.24.24,0,0,1,.15,0,.4.4,0,0,1,0,.15l0,1.69v2.87l0,1.7c0,.08,0,.13,0,.14s-.06,0-.14,0l-1.84,0h-1a7.7,7.7,0,0,0,.76,2.13,8.85,8.85,0,0,0,1.32-1.13,3.73,3.73,0,0,0,.59-.75,9.5,9.5,0,0,1,1.06.88.45.45,0,0,1,.16.26c0,.1-.07.17-.2.22a1.36,1.36,0,0,0-.57.35A16.3,16.3,0,0,1,20,34.53a7.46,7.46,0,0,0,2.79,2,5.89,5.89,0,0,0-.7,1.14c-.12.25-.21.38-.29.38a1.3,1.3,0,0,1-.34-.15A9.38,9.38,0,0,1,17,31.29h-1v4.62A21.59,21.59,0,0,0,18.36,35.15Zm1.53-9.08H16.05v1.27h3.84Zm0,3.92V28.65H16.05V30Z"/><path class="cls-2" d="M35,28.3l2.09,0a.24.24,0,0,1,.15,0,.33.33,0,0,1,0,.14l0,.66v.54l0,1.48a.24.24,0,0,1,0,.15s-.06,0-.14,0H35.88c-.08,0-.13,0-.15,0a.33.33,0,0,1,0-.14v-1.6H26.1v1.6c0,.08,0,.14,0,.16a.4.4,0,0,1-.15,0h-1.2c-.08,0-.13,0-.15,0a.33.33,0,0,1,0-.14l0-1.48v-.45l0-.75q0-.14,0-.15s.07,0,.14,0l2.08,0H30a7,7,0,0,0-.11-1c.41,0,.89,0,1.42.06l-.12-.11a3,3,0,0,0-.84-.44l.28-.31-1.77,0a7.94,7.94,0,0,1,.44.94.31.31,0,0,1,0,.12s-.06.08-.19.11l-1,.2-.16,0c-.06,0-.11,0-.14-.15a10.37,10.37,0,0,0-.47-1.25h-1a6.68,6.68,0,0,1-1.13,1.28c-.18.16-.3.25-.35.25s-.15-.1-.33-.28A3.61,3.61,0,0,0,23.8,27a7.31,7.31,0,0,0,1.92-2.33A3.69,3.69,0,0,0,26,24c.6.08,1.07.16,1.42.23.16,0,.24.08.24.19a.29.29,0,0,1-.12.22,1,1,0,0,0-.27.37l-.11.21H28.8l1.81,0c.09,0,.14,0,.16,0a.19.19,0,0,1,0,.13v.95a6.79,6.79,0,0,0,1-1.54A4.36,4.36,0,0,0,32,24c.53.07,1,.15,1.32.23.17,0,.25.09.25.18a.29.29,0,0,1-.12.22,1.81,1.81,0,0,0-.3.51l0,.09h2.24l2.21,0c.08,0,.13,0,.14,0s0,.06,0,.13v1c0,.08,0,.13,0,.14a.19.19,0,0,1-.13,0l-2.21,0H35.1a5.5,5.5,0,0,1,.46.94.31.31,0,0,1,0,.12s-.06.08-.19.11l-1,.18-.16,0c-.06,0-.1,0-.13-.15a10.84,10.84,0,0,0-.52-1.23H32.47a7.57,7.57,0,0,1-.56.78,1.29,1.29,0,0,1-.24.22.22.22,0,0,1,0,.1.72.72,0,0,1-.09.24,1.39,1.39,0,0,0-.06.53Zm-2.36,1.93,2.08,0a.24.24,0,0,1,.15,0,.33.33,0,0,1,0,.14l0,1.06v.77l0,1.08c0,.11-.06.16-.17.16l-2.08,0H28.37v.84H33.5l2.22,0a.22.22,0,0,1,.15,0,.4.4,0,0,1,0,.15l0,1.17v1.28l0,1.15a.24.24,0,0,1,0,.15s-.07,0-.14,0H34.47a.24.24,0,0,1-.15,0,.37.37,0,0,1,0-.14v-.42H28.37V38q0,.14,0,.15s-.07,0-.14,0H27c-.09,0-.13,0-.15,0a.33.33,0,0,1,0-.14l0-1.78V32.17l0-1.8q0-.14,0-.15s.06,0,.14,0l2.19,0Zm.67,2v-.89H28.37v.89Zm1,3.17H28.37v1H34.3Z"/><path class="cls-2" d="M40.46,28.24a11.46,11.46,0,0,1,2.16,1.56q.09.06.09.12a.55.55,0,0,1-.09.19l-.68.92c-.08.11-.14.17-.18.17s-.07,0-.12-.08a11.16,11.16,0,0,0-2.17-1.66c-.07-.06-.1-.1-.1-.13a.46.46,0,0,1,.1-.17l.67-.85c.07-.08.13-.13.18-.13A.3.3,0,0,1,40.46,28.24Zm-1,8.89A6.88,6.88,0,0,0,40.22,36a25.14,25.14,0,0,0,1.51-3.71,6.33,6.33,0,0,0,.89.79c.22.16.33.28.33.37a3.65,3.65,0,0,1-.09.37,26,26,0,0,1-1.43,3.47,2.3,2.3,0,0,0-.22.58c0,.13-.11.2-.21.2a.64.64,0,0,1-.28-.09A8.36,8.36,0,0,1,39.47,37.13Zm1.62-12.79A14.93,14.93,0,0,1,43.27,26c.06.05.08.09.08.11a.57.57,0,0,1-.09.2l-.67.91c-.09.1-.15.15-.19.15a.26.26,0,0,1-.12-.07,10.83,10.83,0,0,0-2.14-1.74c-.07,0-.1-.07-.1-.09a.71.71,0,0,1,.11-.18l.63-.83q.11-.15.18-.15A.31.31,0,0,1,41.09,24.34Zm9.33,1.75a21.37,21.37,0,0,1,3,3.84.47.47,0,0,1,.05.14s-.05.1-.15.17l-.9.65a.81.81,0,0,1-.21.11s-.07,0-.12-.12q-.26-.49-.63-1.11-4.57.51-7.19.7a1.58,1.58,0,0,0-.66.13.6.6,0,0,1-.27.09q-.11,0-.18-.24a12.78,12.78,0,0,1-.29-1.55l.88,0,.74,0h.09a30.33,30.33,0,0,0,1.59-3.83A4.65,4.65,0,0,0,46.42,24a12.85,12.85,0,0,1,1.7.33c.2.06.3.14.3.25a.38.38,0,0,1-.18.29,2.15,2.15,0,0,0-.41.72c-.66,1.47-1.16,2.55-1.51,3.21,1.43-.11,2.84-.23,4.23-.38A14.54,14.54,0,0,0,49.27,27c-.05-.06-.08-.1-.08-.12s.05-.08.15-.16l.79-.59a.37.37,0,0,1,.16-.09S50.36,26,50.42,26.09ZM45.68,38.14H44.37c-.08,0-.13,0-.15,0a.33.33,0,0,1,0-.14l0-2.81V33.76l0-1.94q0-.13,0-.15a.22.22,0,0,1,.14,0l2,0H50l2,0c.08,0,.13,0,.14,0a.24.24,0,0,1,0,.15l0,1.69v1.58l0,2.8c0,.08,0,.13,0,.14s-.07,0-.14,0H50.65a.29.29,0,0,1-.17,0,.31.31,0,0,1,0-.13V37.3H45.85V38a.3.3,0,0,1,0,.16A.37.37,0,0,1,45.68,38.14Zm.17-5v2.79h4.61V33.09Z"/><path class="cls-2" d="M67,28.91c.23.14.53.34.91.61a.26.26,0,0,1,.14.21.2.2,0,0,1-.15.19,1.81,1.81,0,0,0-.47.32l-.4.34a9.25,9.25,0,0,0,2,.82,3.34,3.34,0,0,0-.51.84c-.11.26-.21.39-.29.39a1.28,1.28,0,0,1-.38-.14,9.43,9.43,0,0,1-1.16-.61v1.5l0,1.25c0,.08,0,.12,0,.14a.28.28,0,0,1-.16,0l-2,0H64v.66l0,1.47A1.07,1.07,0,0,1,63.51,38a3.3,3.3,0,0,1-1.45.23h-.42c-.15,0-.24,0-.28-.1a1.38,1.38,0,0,1-.12-.36,3.15,3.15,0,0,0-.32-.92,8.78,8.78,0,0,0,1.06.06.66.66,0,0,0,.47-.12.51.51,0,0,0,.09-.34V34.77h-.63l-2,0a.24.24,0,0,1-.15,0,.37.37,0,0,1,0-.14l0-1.42V32.1l-.8.53a.72.72,0,0,1-.26.12c-.06,0-.13-.08-.21-.22s-.2-.27-.38-.49a15,15,0,0,1-.27,2.14,9.85,9.85,0,0,1-1.55,3.58c-.13.18-.23.26-.29.26s-.16-.08-.29-.26a3.63,3.63,0,0,0-.89-.84,7.16,7.16,0,0,0,1.62-3.35,10.91,10.91,0,0,0,.19-1.1l-.88.48a1.42,1.42,0,0,0-.47.31.31.31,0,0,1-.24.12.2.2,0,0,1-.19-.17c-.13-.36-.26-.83-.4-1.39a9.92,9.92,0,0,0,1.24-.39,11.33,11.33,0,0,0,1-.49c0-.78,0-1.46,0-2l0-3.51c0-.09,0-.14,0-.16a.19.19,0,0,1,.13,0l2.14,0h2.77v-.1a6,6,0,0,0-.12-1.19c.49,0,1,0,1.65.08.17,0,.25.07.25.17a1.11,1.11,0,0,1-.09.28,1.6,1.6,0,0,0-.08.6v.16h3l2.1,0c.08,0,.13,0,.14,0a.4.4,0,0,1,0,.15v1c0,.08,0,.12,0,.14a.31.31,0,0,1-.13,0l-2.1,0H62.44c.45.07.86.14,1.24.22.17,0,.25.09.25.18a.38.38,0,0,1-.15.28,1.62,1.62,0,0,0-.34.51h2.68l2.14,0c.08,0,.13,0,.14,0a.37.37,0,0,1,0,.14v.91a.14.14,0,0,1-.16.16l-2.14,0h-1a5.71,5.71,0,0,0,1,1c.16-.13.35-.31.59-.55A2.23,2.23,0,0,0,67,28.91ZM55.78,26.75A18,18,0,0,1,56.66,29a.65.65,0,0,1,0,.11c0,.06-.06.12-.18.19l-.68.4a.57.57,0,0,1-.2.09s-.08,0-.11-.12a17.45,17.45,0,0,0-.87-2.36.31.31,0,0,1,0-.12s.06-.08.17-.14l.7-.36a.46.46,0,0,1,.18-.06C55.7,26.64,55.74,26.67,55.78,26.75Zm4.55,8.14,1.05.54c.12.08.19.16.19.25s-.07.15-.21.23a2.49,2.49,0,0,0-.34.29,8.09,8.09,0,0,1-1.87,1.44.92.92,0,0,1-.37.15c-.07,0-.19-.1-.36-.31a4.24,4.24,0,0,0-.74-.69,8.33,8.33,0,0,0,2-1.2A3,3,0,0,0,60.33,34.89Zm.62-6-2.14,0a.14.14,0,0,1-.16-.16v-.91c0-.08,0-.13,0-.14a.19.19,0,0,1,.13,0l2.14,0h1a4.87,4.87,0,0,0,.36-1.19H58.19v2.65c0,.95,0,1.74-.07,2.36a13.12,13.12,0,0,0,1.37-.84,9.38,9.38,0,0,0-.87-.92.19.19,0,0,1-.07-.12s0-.09.13-.16l.53-.45a.28.28,0,0,1,.15-.08.19.19,0,0,1,.14.08c.33.29.63.58.91.88a5.07,5.07,0,0,0,.89-1Zm4.34,2.42H61.1V32h4.19Zm0,2.38v-.65H61.1v.65Zm-.64-3.49a6.75,6.75,0,0,1-1-1.31h-.84a8.58,8.58,0,0,1-.94,1.31Zm1.28,4.87a7.85,7.85,0,0,0,2.54,1.48,4,4,0,0,0-.67.85c-.15.23-.26.35-.34.35a1.44,1.44,0,0,1-.36-.15,10.4,10.4,0,0,1-2.26-1.73.24.24,0,0,1-.07-.13s0-.1.15-.16l.69-.48a.49.49,0,0,1,.2-.1A.19.19,0,0,1,65.93,35.08Z"/><path class="cls-2" d="M71.24,26.54c.65.07,1.64.1,3,.1h5.51a1.82,1.82,0,0,0,.85-.15.48.48,0,0,1,.24-.06.75.75,0,0,1,.28.07,4.38,4.38,0,0,1,1.13,1,.45.45,0,0,1,.11.26.53.53,0,0,1-.22.39,2.08,2.08,0,0,0-.35.6,18.16,18.16,0,0,1-3,5,17.09,17.09,0,0,1-4.38,3.68.78.78,0,0,1-.42.14.57.57,0,0,1-.39-.17,4.57,4.57,0,0,0-1.43-.85,17.7,17.7,0,0,0,3-1.86,15.32,15.32,0,0,0,2-2,13.61,13.61,0,0,0,2.61-4.4H74.22c-.6,0-1.45,0-2.55.07-.16,0-.26-.09-.29-.31S71.3,27.32,71.24,26.54ZM81,25.19l.74-.51a.16.16,0,0,1,.09,0,.24.24,0,0,1,.14.06,6.53,6.53,0,0,1,1.47,1.66.18.18,0,0,1,.05.11.17.17,0,0,1-.09.13l-.58.42a.19.19,0,0,1-.12,0,.17.17,0,0,1-.14-.09A7.93,7.93,0,0,0,81,25.19Zm1.35-1,.66-.49a.26.26,0,0,1,.1,0,.28.28,0,0,1,.13.07,6.17,6.17,0,0,1,1.47,1.59.24.24,0,0,1,0,.12.22.22,0,0,1-.09.16l-.51.42a.17.17,0,0,1-.12.06.16.16,0,0,1-.14-.11A7.81,7.81,0,0,0,82.37,24.23Z"/><path class="cls-2" d="M95.66,35.18h-6v.91c0,.13,0,.22-.07.25a.59.59,0,0,1-.27.06H88.11c-.21,0-.32-.08-.32-.19v0c0-1.6,0-2.63,0-3.07V28.31c0-.6,0-1.12,0-1.55,0-.15.06-.22.18-.22.54,0,1.46,0,2.76,0h3.67c1.45,0,2.42,0,2.9,0q.21,0,.21.24v.07l0,2.5v3.69c0,.56,0,1.54.08,2.94,0,.17-.1.26-.3.26h-.71c-.24,0-.47,0-.7,0s-.16,0-.18,0a.43.43,0,0,1,0-.2Zm0-1.63V28.22h-6v5.33Z"/><path class="cls-2" d="M107.83,27.26l2.77-.06a1.59,1.59,0,0,0,.78-.19.29.29,0,0,1,.19-.06.45.45,0,0,1,.25.09,7.16,7.16,0,0,1,1.05.84.49.49,0,0,1,.21.36.46.46,0,0,1-.19.32,2,2,0,0,0-.51.66A21.7,21.7,0,0,1,109.32,34a20,20,0,0,1-2.44,2.3,15.62,15.62,0,0,1-2.25,1.54.46.46,0,0,1-.25.08.55.55,0,0,1-.35-.17,4.2,4.2,0,0,0-1.47-.71,22.07,22.07,0,0,0,3.06-2,18.35,18.35,0,0,0,2.08-2,16.73,16.73,0,0,0,1.63-2.1,21,21,0,0,0,1.23-2.29l-3.74.11A24.09,24.09,0,0,1,103.9,32a.46.46,0,0,1-.33.18.35.35,0,0,1-.22-.09,3.9,3.9,0,0,0-1.49-.67A19.11,19.11,0,0,0,106,26.82a8,8,0,0,0,.91-2.09,7.86,7.86,0,0,1,1.8.82.3.3,0,0,1,.16.26.31.31,0,0,1-.17.26,2.08,2.08,0,0,0-.39.42Zm3.87-1.57.82-.58a.16.16,0,0,1,.09,0,.24.24,0,0,1,.14.06,6.32,6.32,0,0,1,1.46,1.66.21.21,0,0,1,.05.11c0,.05,0,.09-.09.13l-.65.49a.19.19,0,0,1-.12,0,.17.17,0,0,1-.14-.1A8.09,8.09,0,0,0,111.7,25.69Zm1.42-1,.77-.56a.26.26,0,0,1,.1,0,.28.28,0,0,1,.13.07,5.84,5.84,0,0,1,1.47,1.59.27.27,0,0,1,0,.13.18.18,0,0,1-.09.15l-.62.48a.24.24,0,0,1-.13.05s-.09,0-.13-.1A7.36,7.36,0,0,0,113.12,24.67Z"/></g></g></svg>