<svg xmlns="http://www.w3.org/2000/svg" viewBox="0 0 60 60"><defs><style>.cls-1{fill:#fff;}.cls-2{fill:#000070;}</style></defs><title>btn_spMenuBottonOpen</title><g id="レイヤー_2" data-name="レイヤー 2"><g id="head"><rect class="cls-1" width="60" height="60"/><rect class="cls-2" x="19" y="15" width="24" height="4"/><rect class="cls-2" x="19" y="35" width="24" height="4"/><rect class="cls-2" x="19" y="25" width="24" height="4"/><path class="cls-2" d="M19.7,42.64h1.12l1.41,3.92c.17.51.34,1,.52,1.53h.05c.17-.51.33-1,.5-1.53l1.4-3.92h1.12V50H25V45.91c0-.63.07-1.52.12-2.16h0l-.58,1.67-1.39,3.81h-.62l-1.39-3.81-.58-1.67h0c0,.64.11,1.53.11,2.16V50H19.7Z"/><path class="cls-2" d="M27.33,47.26a2.63,2.63,0,0,1,2.45-2.86c1.38,0,2.16,1,2.16,2.55a3.55,3.55,0,0,1,0,.52H28.24a1.8,1.8,0,0,0,1.8,1.9,2.34,2.34,0,0,0,1.36-.43l.33.6a3.23,3.23,0,0,1-1.8.56A2.6,2.6,0,0,1,27.33,47.26Zm3.81-.44c0-1.1-.5-1.69-1.35-1.69a1.67,1.67,0,0,0-1.56,1.69Z"/><path class="cls-2" d="M33.29,44.54H34l.08.78h0A2.6,2.6,0,0,1,36,44.4c1.14,0,1.66.74,1.66,2.13V50h-.91V46.65c0-1-.31-1.45-1-1.45a2.07,2.07,0,0,0-1.49.83V50h-.9Z"/><path class="cls-2" d="M39.33,48V44.54h.9v3.33c0,1,.3,1.44,1,1.44.56,0,1-.27,1.47-.92V44.54h.91V50h-.76l-.07-.85h0a2.33,2.33,0,0,1-1.8,1C39.83,50.1,39.33,49.36,39.33,48Z"/></g></g></svg>