<svg xmlns="http://www.w3.org/2000/svg" viewBox="0 0 123.56 49.42"><defs><style>.cls-1{fill:#000070;}.cls-2{fill:#fff;}</style></defs><title>btn_ul_spTuijuNav01</title><g id="レイヤー_2" data-name="レイヤー 2"><g id="navi"><rect class="cls-1" width="123.56" height="49.42"/><path class="cls-2" d="M10.36,16.57l.35.19s.07,0,.07.07a.16.16,0,0,1,0,.08,1.68,1.68,0,0,0-.31,1c0,1.05,1,1.57,3.11,1.57A15.08,15.08,0,0,0,17,19.09h.07s.06,0,.07.09a2.87,2.87,0,0,1,.08.44v0c0,.05-.05.08-.14.1a17,17,0,0,1-3.63.32q-3.6,0-3.6-2.19A2.19,2.19,0,0,1,10.36,16.57Zm.35-4.46a13.89,13.89,0,0,0,2.84.26c1,0,1.88,0,2.68-.12h0c.06,0,.1,0,.12.11a1.4,1.4,0,0,1,0,.37c0,.09-.06.14-.17.16a9.27,9.27,0,0,0-3.11,1.43.3.3,0,0,1-.15,0,.17.17,0,0,1-.1,0,.87.87,0,0,0-.36-.18,20,20,0,0,1,2.22-1.27c-.45,0-.93,0-1.45,0a13.36,13.36,0,0,1-2.53-.23s-.08-.06-.08-.14S10.71,12.2,10.71,12.11Zm5.65-1,.35-.26h.1a5.39,5.39,0,0,1,1.36,1.46l0,0a.09.09,0,0,1,0,.06l-.29.24-.05,0a.12.12,0,0,1-.09-.06A5.45,5.45,0,0,0,16.36,11.08Zm1-.75.32-.24.06,0,.05,0a5.88,5.88,0,0,1,1.35,1.38.07.07,0,0,1,0,.06.09.09,0,0,1,0,.07l-.28.24-.05,0a.1.1,0,0,1-.07,0A5.65,5.65,0,0,0,17.36,10.33Z"/><path class="cls-2" d="M25.08,14.74a11.52,11.52,0,0,0-2.6-1.94s-.06,0-.06-.05,0-.06.08-.13l.14-.17s.07-.06.09-.06l.06,0a13,13,0,0,1,1.51,1,16.64,16.64,0,0,0,2.93-1.91h-4.9l-1.71,0a.07.07,0,0,1-.07-.08V11c0-.06,0-.09.07-.09l1.71,0h5.05a.61.61,0,0,0,.27,0l.15-.05c.07,0,.17.08.3.22s.22.26.22.34-.05.1-.15.14a1.27,1.27,0,0,0-.42.24,16.13,16.13,0,0,1-3,1.93c.29.23.56.46.81.7l0,0s0,.06-.1.11l-.21.19h3.31a1,1,0,0,0,.3,0,.39.39,0,0,1,.14-.05.81.81,0,0,1,.31.19c.13.11.19.19.19.26s-.05.12-.13.16a1.52,1.52,0,0,0-.43.39,10.75,10.75,0,0,1-1.52,1.42.29.29,0,0,1-.14.07s-.08,0-.17-.1a2.29,2.29,0,0,0-.39-.21,7.17,7.17,0,0,0,1.78-1.55H24.88v2.88l0,1.55a1.45,1.45,0,0,1-.08.55.66.66,0,0,1-.21.27,2.29,2.29,0,0,1-1.2.2H23a.36.36,0,0,1-.19,0,.44.44,0,0,1-.06-.17,1.62,1.62,0,0,0-.19-.43,10.9,10.9,0,0,0,1.17.06.71.71,0,0,0,.47-.11.51.51,0,0,0,.11-.37V15.29H21.23l-1.64,0a.07.07,0,0,1-.08-.08V14.8a.07.07,0,0,1,.08-.08l1.64,0Z"/><path class="cls-2" d="M31.82,14.16A13.64,13.64,0,0,0,30,12.29s-.05,0-.05-.07,0,0,.07-.09l.15-.18c0-.06.09-.09.11-.09s0,0,.07,0l.52.49c.3-.45.58-.92.83-1.39a2.26,2.26,0,0,0,.33-.85,3.94,3.94,0,0,1,.55.26c.08.05.12.09.12.14s0,.08-.1.13a.63.63,0,0,0-.21.24c-.37.63-.76,1.24-1.18,1.82.34.35.64.68.89,1,.29-.44.55-.86.78-1.27a6.14,6.14,0,0,0,.52-1.08,3.35,3.35,0,0,1,.53.28.17.17,0,0,1,.1.13s0,.09-.12.14a2.51,2.51,0,0,0-.42.55c-.72,1.16-1.4,2.17-2.06,3,.7,0,1.48-.09,2.33-.17a6.14,6.14,0,0,0-.51-1l0,0s0-.06.12-.1l.15,0,.12,0a.1.1,0,0,1,.07.05,11.8,11.8,0,0,1,1,2.16.13.13,0,0,1,0,.06s0,.06-.09.08l-.23.09-.1,0s-.06,0-.07-.07-.15-.45-.26-.76l-1.25.13v3.2l0,1.81s0,.07-.08.07h-.42c-.06,0-.08,0-.08-.07l0-1.81V15.92L30.77,16a1.13,1.13,0,0,0-.47.1.24.24,0,0,1-.12,0s-.08-.05-.1-.14a3.53,3.53,0,0,1-.1-.54c.21,0,.44,0,.68,0h.18C31.19,15.08,31.52,14.63,31.82,14.16ZM30,19.82a9.05,9.05,0,0,0,.7-2.38,2.28,2.28,0,0,0,0-.36,1.28,1.28,0,0,0,0-.19,3.41,3.41,0,0,1,.46.09c.1,0,.16.07.16.12l-.06.13a1,1,0,0,0-.09.34,9.79,9.79,0,0,1-.63,2.35c0,.09-.07.13-.1.13a.47.47,0,0,1-.13-.09A1,1,0,0,0,30,19.82Zm3.76-2.93h.08s0,0,.07.06a10.6,10.6,0,0,1,.71,2.29v.05s0,.07-.1.1l-.18.07-.15,0s0,0-.06-.08a13,13,0,0,0-.66-2.31.25.25,0,0,1,0-.07s0-.06.1-.08ZM36,12.35h2.65l1.34,0c.06,0,.09,0,.09.1s0,.49,0,.89a38.33,38.33,0,0,1-.4,5.76,3.37,3.37,0,0,1-.49,1.39,1.09,1.09,0,0,1-.9.41,11.73,11.73,0,0,1-1.2-.07.44.44,0,0,1-.19-.06.69.69,0,0,1-.05-.18,1.55,1.55,0,0,0-.14-.43,9.7,9.7,0,0,0,1.57.19.66.66,0,0,0,.6-.48,3.63,3.63,0,0,0,.26-1,39.15,39.15,0,0,0,.35-6H35.76a9.69,9.69,0,0,1-1.06,1.63c-.06.07-.1.11-.13.11a.36.36,0,0,1-.14-.09,1,1,0,0,0-.3-.21,9,9,0,0,0,1.75-3.11,4.62,4.62,0,0,0,.23-1.06,2.87,2.87,0,0,1,.6.17c.09,0,.13.07.13.12a.33.33,0,0,1-.1.21,1.66,1.66,0,0,0-.28.57A10.17,10.17,0,0,1,36,12.35Zm0,2.52a9.13,9.13,0,0,1,1.59,2.25l0,.06s0,.07-.13.12l-.17.11-.17.08s-.05,0-.06-.06a9.93,9.93,0,0,0-1.51-2.29.09.09,0,0,1,0-.06s0-.06.11-.11l.18-.1a.17.17,0,0,1,.1,0A.08.08,0,0,1,36,14.87Z"/><path class="cls-2" d="M46,14.63a.9.9,0,0,1,.7.31.94.94,0,0,1-.7,1.57.9.9,0,0,1-.7-.31.92.92,0,0,1-.25-.64.89.89,0,0,1,.32-.69A.92.92,0,0,1,46,14.63Z"/><path class="cls-2" d="M55,13.35c0-.54,0-.91,0-1.1a5.4,5.4,0,0,0-.11-1.17,4.79,4.79,0,0,1,.82.14.16.16,0,0,1,.11.17.39.39,0,0,1,0,.14,1.37,1.37,0,0,0-.14.56c0,.27,0,.66,0,1.16a8.55,8.55,0,0,0,1.83-.52l.08,0s.06,0,.07.09c0,.24,0,.37,0,.38s0,.11-.13.15a12.47,12.47,0,0,1-1.91.5c0,1.13,0,2,0,2.57a7.84,7.84,0,0,1,3.22-1,2.3,2.3,0,0,1,1.77.67,2.13,2.13,0,0,1-.26,3,2.75,2.75,0,0,1-1.67.46,3,3,0,0,1-.91-.12q-.1,0-.12-.21a1.37,1.37,0,0,0-.14-.46,3.18,3.18,0,0,0,1.15.23A1.94,1.94,0,0,0,60,18.58a1.46,1.46,0,0,0,.46-1.14,1.36,1.36,0,0,0-.52-1.13,1.94,1.94,0,0,0-1.23-.37,8,8,0,0,0-3.1,1c0,.33,0,.9.07,1.7,0,.09,0,.35,0,.76s0,.43,0,.49,0,.24-.12.26a1.14,1.14,0,0,1-.39.06s-.09,0-.15-.1a1.92,1.92,0,0,0-.21-.23A11,11,0,0,0,53,18.5a2.2,2.2,0,0,0-.39.25.33.33,0,0,1-.15.07s-.09,0-.14-.11a2.49,2.49,0,0,1-.31-.58,4.36,4.36,0,0,0,1.17-.43l1.87-1V13.91A16.68,16.68,0,0,1,53,14h-.25a.18.18,0,0,1-.21-.16q0-.11,0-.42c.2,0,.41,0,.63,0A15.32,15.32,0,0,0,55,13.35Zm0,3.87c-.77.45-1.35.8-1.73,1,.59.39,1.14.71,1.62,1l.1,0c.05,0,.07,0,.07-.11C55.1,18.78,55.08,18.13,55.05,17.22Zm4-4.33a2.16,2.16,0,0,1,.23-.39.16.16,0,0,1,.11-.07h0a3.92,3.92,0,0,1,2.3,1.25.09.09,0,0,1,0,.06.13.13,0,0,1,0,.07,1.49,1.49,0,0,1-.27.36.11.11,0,0,1-.07,0,.11.11,0,0,1-.06,0A4,4,0,0,0,59.08,12.89Z"/><path class="cls-2" d="M64.35,10.71h1.33l1.2,0a.07.07,0,0,1,.08.08l0,1.1v1.31l0,1.1c0,.06,0,.08-.08.08l-1.2,0H63.51v4l0,2.45c0,.05,0,.08-.09.08H63a.07.07,0,0,1-.08-.08l0-2.45V13.24l0-2.47a.07.07,0,0,1,.08-.08Zm-.84,1.57h2.9V11.17h-2.9Zm0,.44v1.17h2.9V12.72Zm2.67,5.93v.85a.07.07,0,0,1-.08.08h-.38a.07.07,0,0,1-.08-.08l0-1.9v-.82l0-1.17a.07.07,0,0,1,.08-.08l1.22,0h1.27l1.22,0c.06,0,.08,0,.08.08l0,1v.89l0,1.83c0,.05,0,.08-.08.08H69A.07.07,0,0,1,69,19.3v-.65Zm0-.47H69V16H66.18Zm5.62-3.84H69.57l-1.29,0c-.06,0-.09,0-.09-.08l0-1V11.81l0-1s0-.08.09-.08l1.29,0H71l1.28,0a.07.07,0,0,1,.08.08l0,1.73v5.59l0,1.59a1.43,1.43,0,0,1-.08.58.61.61,0,0,1-.22.27,2,2,0,0,1-1.16.21h-.26a.29.29,0,0,1-.17,0,.81.81,0,0,1,0-.15,1.31,1.31,0,0,0-.2-.41,8.08,8.08,0,0,0,.89.05.81.81,0,0,0,.58-.14.76.76,0,0,0,.11-.49Zm0-2.06V11.17H68.73v1.11Zm0,1.61V12.72H68.73v1.17Z"/><path class="cls-2" d="M74.21,12a4.1,4.1,0,0,1,.82.2s.08.06.08.1a.45.45,0,0,1,0,.18A3.18,3.18,0,0,0,75,13.57a21.18,21.18,0,0,0,.16,2.72,5.5,5.5,0,0,0,.58,2c.24.44.5.66.76.66s.54-.22.8-.66a5.14,5.14,0,0,0,.54-1.3,1.62,1.62,0,0,0,.34.5.22.22,0,0,1,.08.15.19.19,0,0,1,0,.07,3.89,3.89,0,0,1-.74,1.36,1.34,1.34,0,0,1-1,.54q-.8,0-1.35-1.11a7.08,7.08,0,0,1-.62-2.22,23.34,23.34,0,0,1-.18-3.14A5.21,5.21,0,0,0,74.21,12Zm6.1,1.4a4.17,4.17,0,0,1,.41-.26l.09,0,.07,0a6.8,6.8,0,0,1,2.33,4.16v0a.11.11,0,0,1-.08.1,2.27,2.27,0,0,1-.45.21h0s-.07,0-.08-.08A6.82,6.82,0,0,0,80.31,13.42Z"/><path class="cls-2" d="M89.48,10.51a11.38,11.38,0,0,0,5.46,4.23,1.45,1.45,0,0,0-.28.34c-.06.1-.1.15-.14.15l-.15-.05a11.61,11.61,0,0,1-5.17-4.25,13,13,0,0,1-5,4.32l-.15.06s-.07-.05-.13-.13a1.11,1.11,0,0,0-.31-.3,12.06,12.06,0,0,0,3.21-2.05,9.77,9.77,0,0,0,1.82-2.14,2.18,2.18,0,0,0,.28-.62,5.58,5.58,0,0,1,.58.11c.1,0,.15.08.15.13a.12.12,0,0,1-.07.11l-.07.05Zm-3,9.71v.57c0,.05,0,.08-.08.08H86c-.06,0-.08,0-.08-.08l0-2.06v-1l0-1.31c0-.05,0-.08.08-.08l1.66,0h3.2l1.64,0c.07,0,.1,0,.1.08l0,1.15v1.07l0,2.05c0,.06,0,.08-.1.08H92.1s-.08,0-.08-.08v-.51Zm0-.5H92V16.89H86.51Zm1.78-5.52h1.93l1.43,0a.07.07,0,0,1,.08.08v.39a.07.07,0,0,1-.08.08l-1.43,0H88.29l-1.43,0c-.06,0-.08,0-.08-.08v-.39s0-.08.08-.08Z"/><path class="cls-2" d="M97.77,10.63a4.47,4.47,0,0,1,.82.13.13.13,0,0,1,.07.12.34.34,0,0,1,0,.15,1,1,0,0,0-.12.44c0,.57-.08,1.12-.1,1.66a.64.64,0,0,0,.21-.12.16.16,0,0,1,.1,0,.34.34,0,0,1,.2.11.4.4,0,0,1,.14.22.72.72,0,0,1-.14.22c-.2.28-.39.56-.58.87q0,.06,0,.48c0,.16,0,.28,0,.38A5.73,5.73,0,0,1,102,13.62a2.63,2.63,0,0,1,2.16.92,2.75,2.75,0,0,1,.63,1.85,3.19,3.19,0,0,1-.85,2.15,4.8,4.8,0,0,1-2.27,1.38l-.12,0a.21.21,0,0,1-.17-.08,1.26,1.26,0,0,0-.44-.32,5,5,0,0,0,2.46-1.37,2.72,2.72,0,0,0,.72-1.83,2.15,2.15,0,0,0-.65-1.66,2.13,2.13,0,0,0-1.49-.52,5.53,5.53,0,0,0-3.7,1.73c0,1.48,0,3,0,4.54,0,.07,0,.1-.07.1a3.43,3.43,0,0,1-.48,0s-.08,0-.08-.09l.06-4.6L95.58,19s-.06.07-.1.07l-.06,0a2.16,2.16,0,0,1-.34-.33.11.11,0,0,1,0-.07.12.12,0,0,1,0-.08c.83-1,1.72-2.21,2.66-3.54,0-.47,0-.87,0-1.2q-.44.12-1.44.45l-.53.25h0a.19.19,0,0,1-.16-.1,2.22,2.22,0,0,1-.29-.54,3.25,3.25,0,0,0,.78-.11l1.69-.48c0-.32,0-.85.06-1.58v-.21A3.27,3.27,0,0,0,97.77,10.63Z"/><path class="cls-2" d="M112.56,13.81c0-.78,0-1.52,0-2.21a3.13,3.13,0,0,0-.1-.86,3.58,3.58,0,0,1,.79.15c.08,0,.12.08.12.14a.32.32,0,0,1-.07.17.86.86,0,0,0-.11.4c0,.41,0,1.12-.06,2.14.93-.08,1.76-.13,2.51-.15a.11.11,0,0,1,.12.12v.39a.11.11,0,0,1-.12.12h-.39c-.71,0-1.42,0-2.14.1,0,.8-.07,1.48-.14,2-.11.78-.48,1.16-1.12,1.16a4.77,4.77,0,0,1-1-.1c-.06,0-.1-.07-.1-.18a1.59,1.59,0,0,0-.13-.52,4,4,0,0,0,1.19.21c.34,0,.54-.26.6-.77a16.09,16.09,0,0,0,.12-1.78c-1.12.09-2.32.24-3.62.44,0,.53,0,1,0,1.44q0,1.22.06,1.8a1.2,1.2,0,0,0,.54,1.05,4.4,4.4,0,0,0,1.73.23,16.8,16.8,0,0,0,2.82-.22h.06a.11.11,0,0,1,.12.1,1.68,1.68,0,0,1,0,.41.13.13,0,0,1-.11.14,23,23,0,0,1-2.86.17,4.26,4.26,0,0,1-2.36-.45,1.87,1.87,0,0,1-.59-1.33c0-.4-.06-1.2-.06-2.39v-.87c-.68.1-1.28.21-1.78.33a2.13,2.13,0,0,0-.54.16.2.2,0,0,1-.1,0,.12.12,0,0,1-.12-.09,4.49,4.49,0,0,1-.18-.64h.14a3.93,3.93,0,0,0,.74-.07l1-.15.86-.13c0-.32,0-.78,0-1.36a5,5,0,0,0-.14-1.16A3.32,3.32,0,0,1,109,12a.16.16,0,0,1,.13.16l-.07.25a1.58,1.58,0,0,0-.1.53q0,.34,0,.75c0,.32,0,.51,0,.59Q110.78,14,112.56,13.81Z"/><path class="cls-2" d="M9.63,30.35a7.82,7.82,0,0,0,1.71,2.42,8.51,8.51,0,0,0,2.48,1.75h.3l.56-.54.73-.58h.27l2.79,1.32.19.24c0,1.12-.11,1.38-.61,1.82a3.36,3.36,0,0,1-2.22.75c-1.29,0-4.06-1.38-5.89-3.32s-3.33-4.59-3.33-5.88a3.32,3.32,0,0,1,.76-2.21c.44-.51.7-.62,1.82-.62l.24.2,1.32,2.78v.27l-.58.73L9.63,30Z"/><path class="cls-2" d="M24.36,24.76a3,3,0,0,1,2.78,1.54A9,9,0,0,1,28,30.64,8.31,8.31,0,0,1,26.9,35.4a3,3,0,0,1-2.58,1.21A3,3,0,0,1,21.53,35a9.46,9.46,0,0,1-.79-4.36,8.07,8.07,0,0,1,1.07-4.73A3,3,0,0,1,24.36,24.76Zm0,1.48A1.35,1.35,0,0,0,23,27.31a11,11,0,0,0-.35,3.33,9.92,9.92,0,0,0,.44,3.64,1.23,1.23,0,0,0,1.2.84A1.4,1.4,0,0,0,25.69,34,12.07,12.07,0,0,0,26,30.64a9.6,9.6,0,0,0-.44-3.59A1.25,1.25,0,0,0,24.36,26.24Z"/><path class="cls-2" d="M35.27,24.87v7.52h1.42V33.8H35.27v2.59H33.54V33.8H29.17V32.48l3.72-7.61Zm-1.73,7.52V29.87q0-1.2.09-3.51h-.21c-.34.9-.77,1.9-1.27,3l-1.42,3Z"/><path class="cls-2" d="M45,26.62l-1.83.68c-.17-.75-.56-1.12-1.2-1.12q-2,0-2.07,4.05a2.53,2.53,0,0,1,2.33-1.35A2.65,2.65,0,0,1,44.46,30a4.29,4.29,0,0,1,.72,2.59,4.15,4.15,0,0,1-1.1,3.07,3.23,3.23,0,0,1-2.39,1,3.09,3.09,0,0,1-2.79-1.48,7.53,7.53,0,0,1-.89-4q0-6.34,4-6.35A3,3,0,0,1,45,26.62Zm-5.09,5.15c0,2.26.6,3.39,1.81,3.39s1.61-.84,1.61-2.52-.51-2.32-1.54-2.32A2.16,2.16,0,0,0,39.87,31.77Z"/><path class="cls-2" d="M51.26,31.11v1.48H46.88V31.11Z"/><path class="cls-2" d="M53.1,27.92a3.36,3.36,0,0,1,3.53-3.16,3.57,3.57,0,0,1,2.6.9,2.93,2.93,0,0,1,.82,2.18,3.56,3.56,0,0,1-.57,1.93,10.93,10.93,0,0,1-1.74,1.94A12.48,12.48,0,0,0,55,34.89H60.1v1.5H53V35.06a15.35,15.35,0,0,1,3.27-4.25A8.86,8.86,0,0,0,57.8,29a2.45,2.45,0,0,0,.3-1.22,1.58,1.58,0,0,0-.46-1.22,1.48,1.48,0,0,0-1-.36q-1.49,0-1.62,2.07Z"/><path class="cls-2" d="M67.52,24.87v7.52h1.42V33.8H67.52v2.59H65.79V33.8H61.42V32.48l3.72-7.61Zm-1.73,7.52V29.87c0-.8,0-2,.08-3.51h-.2c-.34.9-.77,1.9-1.27,3l-1.42,3Z"/><path class="cls-2" d="M73.81,24.76a3,3,0,0,1,2.78,1.54,9.11,9.11,0,0,1,.81,4.34,8.23,8.23,0,0,1-1.06,4.76,3,3,0,0,1-2.57,1.21A3,3,0,0,1,71,35a9.33,9.33,0,0,1-.79-4.36,8.07,8.07,0,0,1,1.07-4.73A3,3,0,0,1,73.81,24.76Zm0,1.48a1.36,1.36,0,0,0-1.34,1.07,11.39,11.39,0,0,0-.35,3.33,10.15,10.15,0,0,0,.44,3.64,1.25,1.25,0,0,0,1.21.84A1.39,1.39,0,0,0,75.13,34a11.61,11.61,0,0,0,.34-3.36A9.82,9.82,0,0,0,75,27.05,1.25,1.25,0,0,0,73.81,26.24Z"/><path class="cls-2" d="M83.51,31.11v1.48H79.13V31.11Z"/><path class="cls-2" d="M87.33,34.07c.2.73.6,1.09,1.2,1.09a1.66,1.66,0,0,0,1.56-1,8.09,8.09,0,0,0,.52-3,2.46,2.46,0,0,1-2.34,1.37A2.72,2.72,0,0,1,86,31.32a4.1,4.1,0,0,1-.76-2.56,4.21,4.21,0,0,1,1.06-3.07,3.19,3.19,0,0,1,2.38-.93,3.14,3.14,0,0,1,2.84,1.48,7.48,7.48,0,0,1,.89,4c0,2.37-.39,4.06-1.17,5.1a3.23,3.23,0,0,1-2.74,1.27,2.87,2.87,0,0,1-3-1.85Zm3.19-4.5c0-2.25-.61-3.38-1.77-3.38s-1.62.84-1.62,2.52a2.83,2.83,0,0,0,.48,1.77A1.32,1.32,0,0,0,88.7,31,2,2,0,0,0,90.52,29.57Z"/><path class="cls-2" d="M98.88,30.26a4.25,4.25,0,0,1,1.82,1.42,3.14,3.14,0,0,1,.45,1.75A2.88,2.88,0,0,1,100,35.84a4.05,4.05,0,0,1-2.55.77,4,4,0,0,1-2.83-1,2.82,2.82,0,0,1-.88-2.17,2.51,2.51,0,0,1,.61-1.73A5.17,5.17,0,0,1,96,30.63a3.74,3.74,0,0,1-1.57-1.35A3.12,3.12,0,0,1,94,27.71a2.71,2.71,0,0,1,1.06-2.2,3.68,3.68,0,0,1,2.36-.75,3.63,3.63,0,0,1,2.6.91,2.59,2.59,0,0,1,.85,2A2.76,2.76,0,0,1,98.88,30.26Zm-1.77.94a3.68,3.68,0,0,0-1.24,1,2,2,0,0,0-.33,1.16,1.78,1.78,0,0,0,.58,1.41,1.92,1.92,0,0,0,1.32.45,2,2,0,0,0,1.47-.53,1.66,1.66,0,0,0,.45-1.21,1.69,1.69,0,0,0-.45-1.2,4.68,4.68,0,0,0-1.37-.88Zm.66-1.49a2.63,2.63,0,0,0,1.09-.92,2.07,2.07,0,0,0,.26-1.07,1.48,1.48,0,0,0-.54-1.21,1.74,1.74,0,0,0-1.14-.38,1.64,1.64,0,0,0-1.24.47,1.64,1.64,0,0,0,0,2.15,3.74,3.74,0,0,0,1.17.77Z"/><path class="cls-2" d="M106.06,24.76a3,3,0,0,1,2.78,1.54,9.11,9.11,0,0,1,.81,4.34,8.23,8.23,0,0,1-1.06,4.76A3,3,0,0,1,106,36.61,2.94,2.94,0,0,1,103.23,35a9.33,9.33,0,0,1-.79-4.36c0-2.2.35-3.78,1.07-4.73A3,3,0,0,1,106.06,24.76Zm0,1.48a1.36,1.36,0,0,0-1.34,1.07,11.39,11.39,0,0,0-.35,3.33,10.15,10.15,0,0,0,.44,3.64,1.25,1.25,0,0,0,1.21.84A1.39,1.39,0,0,0,107.38,34a11.61,11.61,0,0,0,.34-3.36,9.82,9.82,0,0,0-.44-3.59A1.26,1.26,0,0,0,106.06,26.24Z"/><path class="cls-2" d="M117,24.87v7.52h1.43V33.8H117v2.59h-1.73V33.8h-4.36V32.48l3.72-7.61Zm-1.73,7.52V29.87q0-1.2.09-3.51h-.21c-.34.9-.76,1.9-1.27,3l-1.41,3Z"/></g></g></svg>