<svg xmlns="http://www.w3.org/2000/svg" viewBox="0 0 60 60"><defs><style>.cls-1{fill:#3395d3;}.cls-2{fill:#fff;}</style></defs><title>log_button_doctorIntroductionNameContents</title><g id="レイヤー_2" data-name="レイヤー 2"><g id="Wire_frame" data-name="Wire frame"><g id="Dark_Blue" data-name="Dark Blue"><circle class="cls-1" cx="30" cy="30" r="30"/></g><g id="Logo_FIXED" data-name="Logo — FIXED"><path class="cls-2" d="M24.51,45.83c13.3,0,20.58-11,20.58-20.58,0-.32,0-.63,0-.93a15,15,0,0,0,3.62-3.75,14.71,14.71,0,0,1-4.16,1.14,7.22,7.22,0,0,0,3.18-4,14.49,14.49,0,0,1-4.59,1.76,7.24,7.24,0,0,0-12.51,4.95,6.43,6.43,0,0,0,.2,1.65A20.51,20.51,0,0,1,15.9,18.5a7.21,7.21,0,0,0,2.25,9.64,7.07,7.07,0,0,1-3.27-.9v.09a7.25,7.25,0,0,0,5.8,7.1,7.38,7.38,0,0,1-1.9.25,6.92,6.92,0,0,1-1.37-.13,7.23,7.23,0,0,0,6.75,5,14.48,14.48,0,0,1-9,3.09,14.1,14.1,0,0,1-1.73-.1,20.18,20.18,0,0,0,11.06,3.27"/></g></g></g></svg>