<svg xmlns="http://www.w3.org/2000/svg" viewBox="0 0 73 73"><defs><style>.cls-1{fill:#000070;}.cls-2{fill:#ddcd9c;}</style></defs><title>thumb_keyToSuccessTitleContents01</title><g id="レイヤー_2" data-name="レイヤー 2"><g id="Wire_frame" data-name="Wire frame"><rect class="cls-1" width="73" height="73"/><path class="cls-2" d="M13.28,23.13v1.39H8.41v2.72H12.1v1.39H8.41v4.58H6.64V23.13Z"/><path class="cls-2" d="M21.55,23.13v1.39H16.64v2.66h3.71v1.39H16.64v3.25h5v1.39H14.89V23.13Z"/><path class="cls-2" d="M27.62,23.13l3.11,10.08H28.89l-.85-3h-3.1l-.87,3H22.41L25.5,23.13Zm.1,5.82-.59-2c-.07-.29-.27-1.12-.59-2.49h-.12c-.21.95-.42,1.77-.62,2.47L25.26,29Z"/><path class="cls-2" d="M39.18,23.13v1.41h-3v8.67H34.4V24.54h-3V23.13Z"/><path class="cls-2" d="M48.42,23.13v6.6a3.48,3.48,0,0,1-1.17,2.86,4,4,0,0,1-2.64.81,3.91,3.91,0,0,1-2.93-1,3.63,3.63,0,0,1-.92-2.63v-6.6h1.75v6.58c0,1.56.72,2.35,2.14,2.35s2.13-.79,2.13-2.35V23.13Z"/><path class="cls-2" d="M50.81,23.13h3.63q3.57,0,3.57,2.74a2.5,2.5,0,0,1-.58,1.69,3.05,3.05,0,0,1-1.42.88l2.33,4.77H56.46L54.41,28.7H52.53v4.5H50.81Zm1.72,1.31v3h1.75c1.32,0,2-.51,2-1.51s-.63-1.46-1.9-1.46Z"/><path class="cls-2" d="M66.56,23.13v1.39H61.65v2.66h3.71v1.39H61.65v3.25h5v1.39H59.9V23.13Z"/><path class="cls-2" d="M30,38.16a4.36,4.36,0,0,1,4.08,2.27,13.25,13.25,0,0,1,1.19,6.36c0,3.24-.51,5.56-1.55,7a4.4,4.4,0,0,1-3.77,1.77,4.33,4.33,0,0,1-4.1-2.31,13.8,13.8,0,0,1-1.16-6.4c0-3.22.53-5.53,1.57-6.94A4.39,4.39,0,0,1,30,38.16Zm0,2.17A2,2,0,0,0,28,41.91a16.18,16.18,0,0,0-.52,4.89,14.88,14.88,0,0,0,.64,5.34,1.82,1.82,0,0,0,1.78,1.22,2,2,0,0,0,2-1.64,17.27,17.27,0,0,0,.5-4.92,14.29,14.29,0,0,0-.65-5.27A1.83,1.83,0,0,0,30,40.33Z"/><path class="cls-2" d="M44.19,38.34V53.09h3.13v2.14h-9V53.09h3.3v-12a12.38,12.38,0,0,1-3.1,1.49L38,40.31a12.52,12.52,0,0,0,3.91-2Z"/></g></g></svg>